<svg width="30" height="30" viewBox="0 0 30 30" fill="none" xmlns="http://www.w3.org/2000/svg">
    <path d="M25.475 11.8625H23.1375C23.075 11.7125 23.025 11.5625 22.9625 11.425L24.6125 9.775C25.3875 9 25.3875 7.725 24.6125 6.95L23.025 5.3625C22.25 4.5875 20.975 4.5875 20.2 5.3625L18.55 7.0125C18.4 6.95 18.2625 6.8875 18.1125 6.8375V4.5C18.1125 3.4 17.2125 2.5 16.1125 2.5H13.8625C12.7625 2.5 11.8625 3.4 11.8625 4.5V6.8375C11.7125 6.9 11.5625 6.95 11.425 7.0125L9.77498 5.3625C8.99998 4.5875 7.72498 4.5875 6.94998 5.3625L5.36248 6.95C4.58748 7.725 4.58748 9 5.36248 9.775L7.01248 11.425C6.94998 11.575 6.88748 11.7125 6.83748 11.8625H4.49998C3.39998 11.8625 2.49998 12.7625 2.49998 13.8625V16.1125C2.49998 17.2125 3.39998 18.1125 4.49998 18.1125H6.83748C6.89998 18.2625 6.94998 18.4125 7.01248 18.55L5.36248 20.2C4.58748 20.975 4.58748 22.25 5.36248 23.025L6.94998 24.6125C7.72498 25.3875 8.99998 25.3875 9.77498 24.6125L11.425 22.9625C11.575 23.025 11.7125 23.0875 11.8625 23.1375V25.475C11.8625 26.575 12.7625 27.475 13.8625 27.475H16.1125C17.2125 27.475 18.1125 26.575 18.1125 25.475V23.1375C18.2625 23.075 18.4125 23.025 18.55 22.9625L20.2 24.6125C20.975 25.3875 22.25 25.3875 23.025 24.6125L24.6125 23.025C25.3875 22.25 25.3875 20.975 24.6125 20.2L22.9625 18.55C23.025 18.4 23.0875 18.2625 23.1375 18.1125H25.475C26.575 18.1125 27.475 17.2125 27.475 16.1125V13.8625C27.475 12.7625 26.575 11.8625 25.475 11.8625Z" stroke="#FE5000" stroke-width="1.5" stroke-linecap="round" stroke-linejoin="round"/>
    <path d="M15 20C17.7614 20 20 17.7614 20 15C20 12.2386 17.7614 10 15 10C12.2386 10 10 12.2386 10 15C10 17.7614 12.2386 20 15 20Z" stroke="#FE5000" stroke-width="1.5" stroke-miterlimit="10"/>
</svg>
